<svg width="1280" height="832" viewBox="0 0 1280 832" fill="none" xmlns="http://www.w3.org/2000/svg">
<g id="rules-background" opacity="0.8" clip-path="url(#clip0_79_72)">
<rect width="1280" height="832" fill="#EADFCF"/>
<g id="noun-sun-3157388 1" opacity="0.89">
<g id="Layer 1" opacity="0.64">
<path id="Vector" d="M70.7614 95.9549C70.6473 95.955 70.5344 95.9328 70.4291 95.8894C70.3237 95.8461 70.228 95.7824 70.1475 95.7022L48.2272 73.9193C48.0644 73.7575 47.9729 73.5381 47.9729 73.3094C47.9729 73.0806 48.0644 72.8612 48.2272 72.6994C48.39 72.5377 48.6108 72.4468 48.841 72.4468C49.0712 72.4468 49.292 72.5377 49.4548 72.6994L71.3752 94.4823C71.4966 94.6029 71.5793 94.7566 71.6127 94.9239C71.6462 95.0913 71.6291 95.2647 71.5634 95.4224C71.4977 95.58 71.3864 95.7147 71.2436 95.8095C71.1009 95.9043 70.9331 95.9549 70.7614 95.9549Z" fill="#AB6D34"/>
<path id="Vector_2" d="M48.841 6.02481C48.6693 6.02479 48.5015 5.97419 48.3587 5.87939C48.2159 5.7846 48.1047 5.64987 48.039 5.49225C47.9733 5.33463 47.9561 5.16119 47.9896 4.99386C48.0231 4.82654 48.1057 4.67284 48.2271 4.55219L70.1475 -17.229C70.3105 -17.3899 70.531 -17.4801 70.7608 -17.4797C70.9905 -17.4794 71.2108 -17.3885 71.3732 -17.2271C71.5357 -17.0656 71.6271 -16.8468 71.6275 -16.6185C71.6279 -16.3902 71.5371 -16.1711 71.3752 -16.0091L49.4548 5.77209C49.3743 5.85232 49.2786 5.91594 49.1733 5.95931C49.0679 6.00269 48.955 6.02495 48.841 6.02481Z" fill="#AB6D34"/>
<path id="Vector_3" d="M94.0448 38.3742H63.8688C63.6316 25.6793 58.4508 13.5701 49.4153 4.59194C40.3798 -4.38623 28.1932 -9.53415 15.4172 -9.76976V-39.7548C15.416 -39.9828 15.3239 -40.2011 15.1612 -40.3619C14.9985 -40.5228 14.7783 -40.613 14.5488 -40.613C14.3193 -40.613 14.0991 -40.5228 13.9364 -40.3619C13.7737 -40.2011 13.6816 -39.9828 13.6804 -39.7548V-9.76976C0.904453 -9.53424 -11.2821 -4.38632 -20.3176 4.59189C-29.353 13.5701 -34.5337 25.6793 -34.7705 38.3742H-64.9478C-65.178 38.3742 -65.3988 38.4651 -65.5616 38.6268C-65.7245 38.7886 -65.8159 39.008 -65.8159 39.2368C-65.8159 39.4656 -65.7245 39.685 -65.5616 39.8468C-65.3988 40.0085 -65.178 40.0994 -64.9478 40.0994H-34.7705C-34.5337 52.7943 -29.353 64.9035 -20.3175 73.8816C-11.2821 82.8598 0.90447 88.0077 13.6804 88.2433V118.228C13.6816 118.456 13.7737 118.675 13.9364 118.835C14.0991 118.996 14.3193 119.087 14.5488 119.087C14.7783 119.087 14.9985 118.996 15.1612 118.835C15.3239 118.675 15.416 118.456 15.4172 118.228V88.2433C28.1932 88.0078 40.3799 82.8599 49.4154 73.8817C58.451 64.9035 63.6317 52.7942 63.8688 40.0993H94.0448C94.275 40.0993 94.4958 40.0084 94.6586 39.8467C94.8214 39.6849 94.9129 39.4655 94.9129 39.2367C94.9129 39.0079 94.8214 38.7885 94.6586 38.6267C94.4958 38.465 94.275 38.3742 94.0448 38.3742ZM14.5491 86.5615C5.12934 86.5615 -4.07888 83.7859 -11.9111 78.5858C-19.7434 73.3857 -25.8479 65.9946 -29.4526 57.3471C-33.0574 48.6997 -34.0006 39.1843 -32.1629 30.0041C-30.3252 20.824 -25.7892 12.3916 -19.1284 5.7731C-12.4676 -0.845387 -3.98126 -5.35263 5.25751 -7.17867C14.4963 -9.0047 24.0725 -8.06751 32.7752 -4.48561C41.4779 -0.903715 48.9163 5.16202 54.1496 12.9445C59.383 20.727 62.1762 29.8768 62.1762 39.2367C62.1618 51.7836 57.1393 63.8125 48.2106 72.6845C39.2819 81.5565 27.1762 86.5471 14.5491 86.5615Z" fill="#AB6D34"/>
<path id="Vector_4" d="M42.5178 107.192C42.3461 107.192 42.1783 107.141 42.0355 107.046C41.8928 106.952 41.7815 106.817 41.7157 106.659L34.7583 89.9717C34.6701 89.7604 34.6701 89.5229 34.7582 89.3115C34.8463 89.1001 35.0153 88.9321 35.228 88.8445C35.4407 88.7569 35.6797 88.7569 35.8925 88.8444C36.1052 88.9319 36.2743 89.0999 36.3624 89.3112L43.3199 105.999C43.4078 106.21 43.4078 106.448 43.3197 106.659C43.2316 106.87 43.0628 107.038 42.8502 107.126C42.7449 107.17 42.6319 107.192 42.5178 107.192Z" fill="#AB6D34"/>
<path id="Vector_5" d="M82.07 67.8907C81.9559 67.8913 81.8429 67.8689 81.7377 67.825L64.9436 60.9119C64.7308 60.8243 64.5619 60.6563 64.4738 60.4449C64.3857 60.2335 64.3857 59.996 64.4738 59.7846C64.562 59.5733 64.731 59.4054 64.9438 59.3178C65.1565 59.2303 65.3955 59.2303 65.6083 59.3179L82.4025 66.2312C82.5881 66.3076 82.7412 66.4456 82.8359 66.6216C82.9306 66.7976 82.9609 67.0008 82.9217 67.1965C82.8825 67.3923 82.7762 67.5685 82.6209 67.6951C82.4657 67.8217 82.2709 67.8907 82.07 67.8907Z" fill="#AB6D34"/>
<path id="Vector_6" d="M65.2759 19.2212C65.075 19.2212 64.8804 19.152 64.7251 19.0254C64.5699 18.8988 64.4636 18.7226 64.4244 18.5269C64.3852 18.3311 64.4155 18.1279 64.5102 17.9519C64.6048 17.7759 64.758 17.6379 64.9435 17.5615L81.7378 10.6482C81.9505 10.5606 82.1895 10.5606 82.4023 10.6481C82.615 10.7357 82.784 10.9036 82.8722 11.115C82.9603 11.3263 82.9604 11.5638 82.8723 11.7752C82.7842 11.9866 82.6152 12.1546 82.4025 12.2422L65.6082 19.1555C65.503 19.1992 65.39 19.2216 65.2759 19.2212Z" fill="#AB6D34"/>
<path id="Vector_7" d="M-2.90843 127.313C-2.96598 127.314 -3.02341 127.308 -3.07979 127.296C-3.30548 127.252 -3.50402 127.12 -3.63183 126.929C-3.75964 126.739 -3.80626 126.506 -3.76145 126.282L2.7314 93.8505C2.77638 93.6261 2.90919 93.4287 3.10063 93.3017C3.29207 93.1747 3.52645 93.1284 3.75221 93.1731C3.97798 93.2178 4.17663 93.3498 4.30447 93.54C4.43231 93.7302 4.47886 93.9631 4.43389 94.1875L-2.05889 126.619C-2.098 126.815 -2.204 126.991 -2.35887 127.117C-2.51374 127.244 -2.70793 127.313 -2.90843 127.313Z" fill="#AB6D34"/>
<path id="Vector_8" d="M32.0061 127.313C31.8055 127.313 31.6111 127.244 31.4562 127.117C31.3013 126.991 31.1954 126.815 31.1566 126.619L24.6637 94.1874C24.6187 93.9631 24.6653 93.7302 24.7931 93.54C24.921 93.3498 25.1196 93.2178 25.3454 93.1731C25.5711 93.1284 25.8055 93.1747 25.997 93.3017C26.1884 93.4287 26.3212 93.6261 26.3662 93.8505L32.8589 126.282C32.9037 126.506 32.8571 126.739 32.7293 126.929C32.6015 127.12 32.4029 127.252 32.1773 127.297C32.1209 127.308 32.0636 127.314 32.0061 127.313Z" fill="#AB6D34"/>
<path id="Vector_9" d="M64.2668 114.036C64.1239 114.036 63.9832 114.001 63.8571 113.934C63.7311 113.867 63.6237 113.77 63.5445 113.652L45.0562 86.1571C44.993 86.0628 44.949 85.9571 44.9269 85.846C44.9048 85.7348 44.9049 85.6205 44.9273 85.5094C44.9496 85.3983 44.9938 85.2927 45.0572 85.1985C45.1207 85.1044 45.2021 85.0236 45.297 84.9608C45.3919 84.898 45.4983 84.8543 45.6101 84.8323C45.7219 84.8103 45.8371 84.8104 45.9488 84.8327C46.0606 84.8549 46.1669 84.8988 46.2617 84.9618C46.3564 85.0248 46.4377 85.1058 46.501 85.2001L64.9892 112.695C65.0763 112.825 65.1264 112.976 65.134 113.132C65.1416 113.288 65.1064 113.443 65.0322 113.58C64.9581 113.718 64.8478 113.833 64.713 113.913C64.5782 113.994 64.424 114.036 64.2668 114.036Z" fill="#AB6D34"/>
<path id="Vector_10" d="M88.958 89.5017C88.7866 89.5018 88.619 89.4514 88.4764 89.3568L60.8059 70.9859C60.7106 70.9233 60.6286 70.8426 60.5647 70.7484C60.5009 70.6542 60.4563 70.5484 60.4337 70.4371C60.4111 70.3258 60.4108 70.2111 60.4328 70.0997C60.4549 69.9882 60.4989 69.8822 60.5623 69.7877C60.6257 69.6932 60.7073 69.6121 60.8023 69.549C60.8973 69.4859 61.004 69.442 61.1161 69.42C61.2282 69.3979 61.3436 69.3981 61.4557 69.4205C61.5677 69.4428 61.6742 69.487 61.7691 69.5503L89.4396 87.9212C89.5946 88.0239 89.7123 88.1734 89.7752 88.3477C89.8381 88.522 89.8429 88.7118 89.7889 88.889C89.735 89.0662 89.625 89.2214 89.4754 89.3318C89.3257 89.4421 89.1444 89.5017 88.958 89.5017Z" fill="#AB6D34"/>
<path id="Vector_11" d="M102.322 57.4476C102.264 57.4478 102.207 57.4422 102.15 57.4307L69.5116 50.9791C69.2866 50.9336 69.0889 50.8014 68.9618 50.6114C68.8347 50.4214 68.7885 50.1892 68.8334 49.9654C68.8782 49.7417 69.0105 49.5448 69.2011 49.4177C69.3918 49.2906 69.6253 49.2438 69.8507 49.2874L102.49 55.739C102.701 55.7808 102.889 55.8991 103.017 56.071C103.145 56.2428 103.205 56.4559 103.184 56.6688C103.163 56.8818 103.063 57.0794 102.904 57.2233C102.745 57.3672 102.537 57.4471 102.322 57.4476Z" fill="#AB6D34"/>
<path id="Vector_12" d="M69.6796 29.2029C69.4643 29.2024 69.2569 29.1225 69.0976 28.9785C68.9383 28.8346 68.8385 28.637 68.8176 28.4241C68.7967 28.2112 68.8561 27.9982 68.9844 27.8264C69.1127 27.6546 69.3006 27.5362 69.5117 27.4944L102.151 21.0427C102.376 20.9981 102.611 21.0443 102.802 21.1713C102.994 21.2984 103.126 21.4958 103.171 21.7201C103.216 21.9444 103.17 22.1773 103.042 22.3675C102.914 22.5578 102.716 22.6897 102.49 22.7344L69.8509 29.1862C69.7945 29.1976 69.7371 29.2032 69.6796 29.2029Z" fill="#AB6D34"/>
<path id="Vector_13" d="M61.2874 9.06789C61.101 9.06788 60.9196 9.00831 60.77 8.89797C60.6204 8.78764 60.5104 8.6324 60.4564 8.4552C60.4024 8.278 60.4073 8.08823 60.4702 7.91395C60.5331 7.73968 60.6507 7.59014 60.8058 7.48743L88.4763 -10.8834C88.5711 -10.9463 88.6775 -10.9899 88.7894 -11.0119C88.9012 -11.0339 89.0163 -11.0338 89.1281 -11.0116C89.2399 -10.9893 89.3462 -10.9455 89.4409 -10.8824C89.5357 -10.8194 89.617 -10.7384 89.6802 -10.6442C89.7434 -10.5499 89.7874 -10.4442 89.8095 -10.3331C89.8316 -10.2219 89.8315 -10.1076 89.8092 -9.99647C89.7868 -9.88538 89.7426 -9.77976 89.6792 -9.68563C89.6157 -9.5915 89.5343 -9.51071 89.4394 -9.44787L61.7689 8.923C61.6264 9.01756 61.4588 9.06799 61.2874 9.06789Z" fill="#AB6D34"/>
</g>
</g>
</g>
<defs>
<clipPath id="clip0_79_72">
<rect width="1280" height="832" fill="white"/>
</clipPath>
</defs>
</svg>
